<?xml version="1.0" standalone="no"?>
<!DOCTYPE svg PUBLIC "-//W3C//DTD SVG 20010904//EN"
 "http://www.w3.org/TR/2001/REC-SVG-20010904/DTD/svg10.dtd">
<svg version="1.0" xmlns="http://www.w3.org/2000/svg"
 width="2048.000000pt" height="512.000000pt" viewBox="0 0 2048.000000 512.000000"
 preserveAspectRatio="xMidYMid meet">

<g transform="translate(0.000000,512.000000) scale(0.100000,-0.100000)"
fill="#000000" stroke="none">
<path d="M0 2560 l0 -2560 10240 0 10240 0 0 2560 0 2560 -10240 0 -10240 0 0
-2560z m4831 1243 c102 -47 180 -147 199 -255 8 -43 10 -207 8 -494 l-3 -429
-27 -55 c-55 -115 -148 -179 -289 -200 -59 -8 -209 -11 -504 -8 -484 4 -487 4
-582 92 -116 106 -127 167 -121 717 4 375 5 385 28 444 40 104 133 183 245
208 11 3 241 4 510 4 479 -2 491 -2 536 -24z m3135 -407 c18 -14 19 -35 21
-738 2 -565 0 -728 -10 -748 -12 -24 -19 -25 -127 -33 -63 -4 -138 -5 -167 -2
l-52 6 -152 227 c-84 125 -225 336 -313 469 -89 133 -164 242 -168 242 -5 1
-8 -205 -8 -458 0 -414 -2 -460 -17 -472 -12 -10 -52 -14 -153 -14 -121 0
-140 2 -159 19 -21 19 -21 19 -21 751 0 555 3 734 12 743 8 8 62 12 175 12
179 0 182 -1 217 -68 14 -26 374 -573 393 -597 5 -5 49 -72 98 -147 49 -76 93
-138 97 -138 4 0 5 206 2 458 -4 308 -2 462 5 472 8 11 39 16 128 21 65 3 132
6 149 7 16 1 39 -4 50 -12z m4628 -7 c176 -45 254 -86 351 -184 126 -125 173
-226 201 -428 13 -93 14 -131 5 -228 -23 -227 -72 -342 -200 -470 -74 -73
-132 -111 -230 -147 -65 -25 -86 -29 -231 -52 -105 -17 -622 -9 -644 9 -15 12
-16 89 -14 760 l3 746 180 6 c232 8 526 2 579 -12z m-3718 -379 c157 -20 316
-129 397 -270 43 -75 55 -110 73 -215 12 -72 13 -103 3 -165 -38 -251 -189
-420 -434 -486 -88 -23 -281 -21 -362 5 -154 48 -281 151 -342 276 -18 39 -37
77 -41 86 -5 9 -14 60 -21 113 -26 202 26 363 160 496 147 145 315 193 567
160z m2463 -20 c79 -26 125 -55 173 -108 82 -91 89 -126 95 -437 3 -143 9
-264 14 -270 6 -5 27 -15 47 -20 l37 -11 3 -123 c2 -109 1 -125 -15 -137 -26
-19 -188 -18 -244 1 -46 16 -119 79 -119 102 0 20 -5 17 -72 -37 -94 -76 -147
-92 -287 -87 -64 2 -132 8 -151 14 -97 28 -180 92 -220 169 -22 43 -25 62 -25
154 0 124 18 174 89 245 90 89 211 126 441 134 l170 6 3 26 c5 39 -28 100 -67
126 -26 18 -48 23 -96 23 -103 0 -162 -30 -190 -97 l-14 -33 -143 0 c-99 0
-148 4 -156 12 -20 20 -13 72 19 136 58 116 185 203 339 233 80 15 297 2 369
-21z m2681 4 c118 -39 221 -118 283 -217 65 -105 77 -145 84 -287 5 -94 3
-118 -9 -128 -11 -9 -115 -12 -404 -14 l-389 -3 3 -30 c5 -47 28 -89 71 -128
45 -40 93 -57 166 -57 99 0 161 33 211 112 l24 38 144 0 c167 0 174 -3 156
-72 -39 -151 -171 -275 -351 -328 -94 -28 -266 -31 -354 -5 -283 82 -442 308
-421 601 3 50 13 115 22 145 59 200 230 351 444 393 56 11 266 -3 320 -20z
m-4329 3 c9 -7 26 -46 39 -87 12 -41 26 -84 30 -95 5 -11 41 -121 80 -245 39
-124 75 -234 80 -245 5 -11 12 -30 15 -42 4 -13 10 -23 14 -23 4 0 33 75 64
168 31 92 79 232 107 312 28 80 57 166 65 191 25 78 31 80 200 77 125 -3 149
-6 158 -20 8 -13 -14 -79 -102 -300 -62 -155 -121 -301 -130 -323 -10 -22 -25
-58 -33 -80 -14 -35 -63 -158 -88 -220 -5 -11 -21 -53 -36 -94 -39 -102 -42
-104 -218 -99 -88 2 -149 7 -156 14 -6 6 -44 98 -84 205 -41 107 -79 208 -86
224 -7 17 -16 39 -21 50 -4 11 -41 103 -80 205 -40 102 -91 234 -115 294 -60
151 -64 146 129 146 104 -1 157 -5 168 -13z m5027 -4 c13 -11 43 -85 81 -198
127 -381 179 -529 188 -532 5 -2 24 41 43 94 18 54 66 195 107 313 41 118 80
235 88 258 25 81 28 82 200 82 161 0 184 -6 172 -47 -7 -26 -144 -360 -167
-410 -11 -24 -20 -47 -20 -52 0 -5 -14 -40 -31 -78 -17 -37 -47 -108 -66 -158
-19 -49 -41 -103 -48 -120 -30 -66 -85 -210 -85 -221 0 -7 -12 -22 -26 -33
-24 -19 -40 -21 -166 -21 -77 0 -147 4 -157 10 -17 8 -41 61 -88 185 -9 22
-19 49 -24 60 -5 11 -22 56 -39 100 -17 44 -35 89 -40 100 -5 11 -23 56 -40
100 -35 88 -38 94 -74 178 -14 32 -26 60 -26 64 0 12 -103 268 -111 278 -5 5
-9 16 -9 25 0 35 21 40 171 40 125 0 150 -3 167 -17z m-8883 -600 c46 -24 81
-61 116 -118 23 -38 24 -50 29 -270 7 -285 0 -438 -24 -484 -27 -51 -71 -95
-129 -127 l-52 -29 -325 0 -325 0 -47 28 c-62 37 -113 98 -133 158 -14 40 -16
96 -13 366 l3 320 30 48 c17 26 46 61 66 77 69 56 84 58 439 55 312 -2 327 -3
365 -24z"/>
<path d="M12185 3089 c-3 -8 -4 -214 -3 -459 l3 -445 170 1 c159 1 174 3 226
26 101 46 157 114 200 243 18 53 18 315 0 370 -38 118 -104 200 -199 242 -52
23 -73 26 -224 31 -137 4 -169 2 -173 -9z"/>
<path d="M8678 2731 c-46 -15 -96 -50 -126 -89 -34 -44 -41 -59 -57 -136 -21
-97 9 -229 67 -290 80 -84 230 -97 334 -29 43 27 83 98 100 172 34 149 -31
310 -144 357 -45 18 -138 26 -174 15z"/>
<path d="M11065 2340 c-84 -7 -119 -23 -145 -65 -26 -41 -25 -76 1 -109 42
-53 103 -68 193 -45 83 21 156 107 156 182 0 49 -26 54 -205 37z"/>
<path d="M13724 2742 c-27 -9 -60 -26 -71 -37 -22 -21 -63 -89 -63 -105 0 -7
81 -9 223 -8 211 3 222 4 219 22 -6 34 -52 92 -90 114 -55 31 -154 37 -218 14z"/>
</g>
</svg>
