<?xml version="1.0" encoding="UTF-8"?>
<svg id="Ebene_1" data-name="Ebene 1" xmlns="http://www.w3.org/2000/svg" viewBox="0 0 1000 300">
  <defs>
    <style>
      .cls-1 {
        stroke: #fff;
        stroke-miterlimit: 10;
      }

      .cls-1, .cls-2 {
        fill: #fff;
      }
    </style>
  </defs>
  <g>
    <rect class="cls-1" x="110.71" y="82.33" width="80.17" height="80.17" rx="12" ry="12"/>
    <rect class="cls-1" x="190.88" y="162.5" width="55.17" height="55.17" rx="12" ry="12"/>
  </g>
  <g>
    <path class="cls-2" d="M342.94,106.8h12.96v86.4h-15.36l-58.08-69.12v69.12h-12.96v-86.4h15.36l58.08,69.12v-69.12Z"/>
    <path class="cls-2" d="M423.93,123.6c8.64,0,15.6,6.96,15.6,15.6v38.4c0,8.64-6.96,15.6-15.6,15.6h-39.6c-8.64,0-15.6-6.96-15.6-15.6v-38.4c0-8.64,6.96-15.6,15.6-15.6h39.6ZM384.34,136.56c-1.44,0-2.64,1.2-2.64,2.64v38.4c0,1.44,1.2,2.64,2.64,2.64h39.6c1.44,0,2.64-1.2,2.64-2.64v-38.4c0-1.44-1.2-2.64-2.64-2.64h-39.6Z"/>
    <path class="cls-2" d="M533.73,123.6l-38.4,69.6h-12.96l-38.4-69.6h15l29.88,54.96,30-54.96h14.88Z"/>
    <path class="cls-2" d="M613.29,139.2v54h-55.2c-8.64,0-15.6-6.96-15.6-15.6v-25.68h57.84v-12.72c0-1.44-1.2-2.64-2.64-2.64h-55.2v-12.96h55.2c8.64,0,15.6,6.96,15.6,15.6ZM600.33,164.88h-44.88v12.72c0,1.44,1.2,2.64,2.64,2.64h42.24v-15.36Z"/>
    <path class="cls-2" d="M697.29,106.8c8.64,0,15.6,6.96,15.6,15.6v55.2c0,8.64-6.96,15.6-15.6,15.6h-70.8v-86.4h70.8ZM699.93,122.4c0-1.44-1.2-2.64-2.64-2.64h-55.2c-1.44,0-2.64,1.2-2.64,2.64v55.2c0,1.44,1.2,2.64,2.64,2.64h55.2c1.44,0,2.64-1.2,2.64-2.64v-55.2Z"/>
    <path class="cls-2" d="M796.53,139.2v25.68h-57.84v12.72c0,1.44,1.2,2.64,2.64,2.64h55.2v12.96h-55.2c-8.64,0-15.6-6.96-15.6-15.6v-38.4c0-8.64,6.96-15.6,15.6-15.6h39.6c8.64,0,15.6,6.96,15.6,15.6ZM783.57,151.92v-12.72c0-1.44-1.2-2.64-2.64-2.64h-39.6c-1.44,0-2.64,1.2-2.64,2.64v12.72h44.88Z"/>
    <path class="cls-2" d="M889.29,123.6l-38.4,69.6h-12.96l-38.4-69.6h15l29.88,54.96,30-54.96h14.88Z"/>
  </g>
</svg>